<svg width="25" height="24" viewBox="0 0 25 24" fill="none" xmlns="http://www.w3.org/2000/svg">
<path fill-rule="evenodd" clip-rule="evenodd" d="M14.6543 2.152C14.2843 2 13.8143 2 12.8753 2C11.9363 2 11.4673 2 11.0963 2.152C10.8522 2.25175 10.6302 2.39878 10.4431 2.58465C10.2561 2.77051 10.1076 2.99154 10.0063 3.235C9.91232 3.458 9.87632 3.719 9.86132 4.098C9.85418 4.3725 9.77739 4.64068 9.63815 4.87736C9.49891 5.11403 9.30179 5.31142 9.06532 5.451C8.82407 5.5851 8.55287 5.65615 8.27685 5.65754C8.00083 5.65894 7.72892 5.59065 7.48632 5.459C7.14832 5.281 6.90332 5.183 6.66132 5.151C6.1319 5.08192 5.59659 5.2242 5.17132 5.547C4.85332 5.789 4.61832 6.193 4.14932 7C3.67932 7.807 3.44532 8.21 3.39232 8.605C3.32232 9.131 3.46632 9.663 3.79232 10.084C3.94032 10.276 4.14932 10.437 4.47232 10.639C4.94932 10.936 5.25532 11.442 5.25532 12C5.25532 12.558 4.94932 13.064 4.47332 13.36C4.14932 13.563 3.94032 13.724 3.79132 13.916C3.63089 14.1242 3.51307 14.362 3.44461 14.6158C3.37614 14.8696 3.35838 15.1343 3.39232 15.395C3.44532 15.789 3.67932 16.193 4.14932 17C4.61932 17.807 4.85332 18.21 5.17132 18.453C5.59532 18.776 6.13132 18.918 6.66132 18.849C6.90332 18.817 7.14832 18.719 7.48632 18.541C7.72905 18.4092 8.00114 18.3408 8.27735 18.3422C8.55356 18.3436 8.82494 18.4147 9.06632 18.549C9.55232 18.829 9.84032 19.344 9.86132 19.902C9.87632 20.282 9.91232 20.542 10.0063 20.765C10.2103 21.255 10.6023 21.645 11.0963 21.848C11.4663 22 11.9363 22 12.8753 22C13.8143 22 14.2843 22 14.6543 21.848C14.8984 21.7483 15.1204 21.6012 15.3074 21.4154C15.4945 21.2295 15.643 21.0085 15.7443 20.765C15.8383 20.542 15.8743 20.282 15.8893 19.902C15.9093 19.344 16.1983 18.828 16.6853 18.549C16.9265 18.4149 17.1977 18.3439 17.4737 18.3425C17.7498 18.3411 18.0217 18.4093 18.2643 18.541C18.6023 18.719 18.8473 18.817 19.0893 18.849C19.6193 18.919 20.1553 18.776 20.5793 18.453C20.8973 18.211 21.1323 17.807 21.6013 17C22.0713 16.193 22.3053 15.79 22.3583 15.395C22.3921 15.1343 22.3741 14.8695 22.3055 14.6157C22.2369 14.3619 22.1189 14.1241 21.9583 13.916C21.8103 13.724 21.6013 13.563 21.2783 13.361C20.8013 13.064 20.4953 12.558 20.4953 12C20.4953 11.442 20.8013 10.936 21.2773 10.64C21.6013 10.437 21.8103 10.276 21.9593 10.084C22.1197 9.87579 22.2375 9.63799 22.306 9.38422C22.3744 9.13044 22.3922 8.86565 22.3583 8.605C22.3053 8.211 22.0713 7.807 21.6013 7C21.1313 6.193 20.8973 5.79 20.5793 5.547C20.154 5.2242 19.6187 5.08192 19.0893 5.151C18.8473 5.183 18.6023 5.281 18.2643 5.459C18.0215 5.59083 17.7495 5.65922 17.4732 5.65782C17.197 5.65642 16.9256 5.58528 16.6843 5.451C16.448 5.3113 16.2511 5.11385 16.112 4.87719C15.9729 4.64052 15.8963 4.37241 15.8893 4.098C15.8743 3.718 15.8383 3.458 15.7443 3.235C15.643 2.99154 15.4945 2.77051 15.3074 2.58465C15.1204 2.39878 14.8984 2.25175 14.6543 2.152ZM12.8753 15C14.5453 15 15.8983 13.657 15.8983 12C15.8983 10.343 14.5443 9 12.8753 9C11.2063 9 9.85232 10.343 9.85232 12C9.85232 13.657 11.2063 15 12.8753 15Z" fill="black"/>
</svg>
