<svg width="25" height="24" viewBox="0 0 25 24" fill="none" xmlns="http://www.w3.org/2000/svg">
<path fill-rule="evenodd" clip-rule="evenodd" d="M14.6541 2.152C14.2841 2 13.8141 2 12.8751 2C11.9361 2 11.4671 2 11.0961 2.152C10.852 2.25175 10.63 2.39878 10.4429 2.58465C10.2559 2.77051 10.1074 2.99154 10.0061 3.235C9.91207 3.458 9.87607 3.719 9.86107 4.098C9.85393 4.3725 9.77714 4.64068 9.6379 4.87736C9.49866 5.11403 9.30154 5.31142 9.06507 5.451C8.82382 5.5851 8.55262 5.65615 8.2766 5.65754C8.00058 5.65894 7.72867 5.59065 7.48607 5.459C7.14807 5.281 6.90307 5.183 6.66107 5.151C6.13165 5.08192 5.59634 5.2242 5.17107 5.547C4.85307 5.789 4.61807 6.193 4.14907 7C3.67907 7.807 3.44507 8.21 3.39207 8.605C3.32207 9.131 3.46607 9.663 3.79207 10.084C3.94007 10.276 4.14907 10.437 4.47207 10.639C4.94907 10.936 5.25507 11.442 5.25507 12C5.25507 12.558 4.94907 13.064 4.47307 13.36C4.14907 13.563 3.94007 13.724 3.79107 13.916C3.63064 14.1242 3.51282 14.362 3.44436 14.6158C3.37589 14.8696 3.35813 15.1343 3.39207 15.395C3.44507 15.789 3.67907 16.193 4.14907 17C4.61907 17.807 4.85307 18.21 5.17107 18.453C5.59507 18.776 6.13107 18.918 6.66107 18.849C6.90307 18.817 7.14807 18.719 7.48607 18.541C7.7288 18.4092 8.00089 18.3408 8.2771 18.3422C8.55331 18.3436 8.82469 18.4147 9.06607 18.549C9.55207 18.829 9.84007 19.344 9.86107 19.902C9.87607 20.282 9.91207 20.542 10.0061 20.765C10.2101 21.255 10.6021 21.645 11.0961 21.848C11.4661 22 11.9361 22 12.8751 22C13.8141 22 14.2841 22 14.6541 21.848C14.8982 21.7483 15.1202 21.6012 15.3072 21.4154C15.4943 21.2295 15.6428 21.0085 15.7441 20.765C15.8381 20.542 15.8741 20.282 15.8891 19.902C15.9091 19.344 16.1981 18.828 16.6851 18.549C16.9263 18.4149 17.1975 18.3439 17.4735 18.3425C17.7496 18.3411 18.0215 18.4093 18.2641 18.541C18.6021 18.719 18.8471 18.817 19.0891 18.849C19.6191 18.919 20.1551 18.776 20.5791 18.453C20.8971 18.211 21.1321 17.807 21.6011 17C22.0711 16.193 22.3051 15.79 22.3581 15.395C22.3919 15.1343 22.3739 14.8695 22.3053 14.6157C22.2367 14.3619 22.1187 14.1241 21.9581 13.916C21.8101 13.724 21.6011 13.563 21.2781 13.361C20.8011 13.064 20.4951 12.558 20.4951 12C20.4951 11.442 20.8011 10.936 21.2771 10.64C21.6011 10.437 21.8101 10.276 21.9591 10.084C22.1195 9.87579 22.2373 9.63799 22.3058 9.38422C22.3742 9.13044 22.392 8.86565 22.3581 8.605C22.3051 8.211 22.0711 7.807 21.6011 7C21.1311 6.193 20.8971 5.79 20.5791 5.547C20.1538 5.2242 19.6185 5.08192 19.0891 5.151C18.8471 5.183 18.6021 5.281 18.2641 5.459C18.0213 5.59083 17.7493 5.65922 17.473 5.65782C17.1968 5.65642 16.9254 5.58528 16.6841 5.451C16.4478 5.3113 16.2509 5.11385 16.1118 4.87719C15.9727 4.64052 15.8961 4.37241 15.8891 4.098C15.8741 3.718 15.8381 3.458 15.7441 3.235C15.6428 2.99154 15.4943 2.77051 15.3072 2.58465C15.1202 2.39878 14.8982 2.25175 14.6541 2.152ZM12.8751 15C14.5451 15 15.8981 13.657 15.8981 12C15.8981 10.343 14.5441 9 12.8751 9C11.2061 9 9.85207 10.343 9.85207 12C9.85207 13.657 11.2061 15 12.8751 15Z" fill="black" fill-opacity="0.25"/>
</svg>
