<svg width="359" height="535" viewBox="0 0 359 535" fill="none" xmlns="http://www.w3.org/2000/svg">
<g filter="url(#filter0_i_1616_8114)">
<path d="M0 24C0 10.7452 10.7452 0 24 0H335C348.255 0 359 10.7452 359 24V511C359 524.255 348.255 535 335 535H24C10.7452 535 0 524.255 0 511V24Z" fill="white"/>
<rect x="152.5" y="16" width="54" height="5" rx="2.5" fill="#E8E8E8"/>
<path d="M22.2305 48.4961C22.2207 51.377 23.0215 54.3457 25.4531 55.8984L24.1055 57.832C22.5625 56.9043 21.5957 55.3613 21.0293 53.5449C20.3945 55.5566 19.3301 57.2461 17.7188 58.2227L16.1953 56.3867C18.832 54.7559 19.8086 51.6211 19.8086 48.6133V45.5469H22.2305V48.4961ZM23.5781 52.0508V50.0195H25.8828V44.2773H28.207V60.9766H25.8828V52.0508H23.5781ZM29.5547 61.7969V44.0234H31.9375V61.7969H29.5547ZM50.0625 54.2773V56.2305H43.1094V61.7969H40.6484V56.2305H33.793V54.2773H50.0625ZM35.707 52.5586V44.707H38.168V46.7578H45.6289V44.707H48.1289V52.5586H35.707ZM38.168 50.5664H45.6289V48.7109H38.168V50.5664ZM65.2578 44.7266V50.9766H60.4336V52.6758H67.3086V54.6875H51.0977V52.6758H57.9336V50.9766H53.1094V44.7266H65.2578ZM52.8945 57.9492V55.9961H65.3359V61.7969H62.8555V57.9492H52.8945ZM55.5508 49.0234H62.8164V46.6602H55.5508V49.0234ZM84.6523 57.832V59.8242H68.3828V57.832H72.4258V54.4531H69.7305V52.4414H72.1133V47.4414H69.6523V45.4492H83.2852V47.4414H80.7852V52.4414H83.207V54.4531H80.5312V57.832H84.6523ZM74.6133 52.4414H78.3242V47.4414H74.6133V52.4414ZM74.9258 57.832H78.0312V54.4531H74.9258V57.832ZM106.488 54.668V56.6992H99.5938V61.8164H97.1328V56.6992H90.2773V54.668H106.488ZM91.0977 51.7578C94.7891 51.3477 96.791 49.6094 97.0938 48.0273H91.7422V46.0742H97.1328V44.043H99.5938V46.0742H105.004V48.0273H99.6719C99.9453 49.5898 101.947 51.3477 105.629 51.7578L104.73 53.7109C101.713 53.3691 99.5352 52.1289 98.3828 50.5176C97.2207 52.1484 95.0332 53.3691 91.9961 53.7109L91.0977 51.7578ZM121.586 44.0234V50.8398H124.105V52.8906H121.586V61.7578H119.086V44.0234H121.586ZM107.367 56.7773C111.576 54.668 113.842 51.8359 114.311 47.8711H108.383V45.8398H116.84C116.82 51.1523 114.75 55.752 108.773 58.6914L107.367 56.7773Z" fill="#151419"/>
<path d="M27.1289 88.8164V101.258H25.4746V88.8164H27.1289ZM16.1094 97.6211C17.9414 96.4932 18.625 94.2646 18.625 92.1523V91.4824H16.5879V90.0879H22.1934V91.4824H20.3066V92.1523C20.2998 94.2168 20.9492 96.3086 22.7676 97.3477L21.7422 98.6328C20.6279 97.9766 19.9033 96.8691 19.4795 95.5293C19.0557 96.9785 18.3037 98.209 17.1621 98.9062L16.1094 97.6211ZM21.3047 94.4902V93.082H22.9453V89.0215H24.5859V100.684H22.9453V94.4902H21.3047ZM38.3809 89.3086V93.6836H35.0039V94.873H39.8164V96.2812H28.4688V94.873H33.2539V93.6836H29.877V89.3086H38.3809ZM29.7266 98.5645V97.1973H38.4355V101.258H36.6992V98.5645H29.7266ZM31.5859 92.3164H36.6719V90.6621H31.5859V92.3164Z" fill="#6B6B6B"/>
<rect x="16.5" y="110.5" width="326" height="50" rx="11.5" fill="white"/>
<rect x="16.5" y="110.5" width="326" height="50" rx="11.5" stroke="#E8E8E8"/>
<path d="M32.7812 132.156C32.7812 134.391 33.7188 136.773 35.5938 137.922L34.7656 139.062C33.4531 138.273 32.5703 136.875 32.0859 135.258C31.5781 137.031 30.6094 138.547 29.25 139.375L28.3281 138.266C30.3047 137.078 31.3516 134.602 31.3438 132.219V129.609H32.7812V132.156ZM34.0781 134.484V133.25H36.25V128.594H37.6562V141.641H36.25V134.484H34.0781ZM39.1406 142.328V128.328H40.5625V142.328H39.1406ZM55.1406 136.562V137.734H49.4219V142.328H47.9688V137.734H42.3281V136.562H55.1406ZM43.9219 134.969V128.891H45.3906V130.719H52.0469V128.891H53.5312V134.969H43.9219ZM45.3906 133.781H52.0469V131.906H45.3906V133.781ZM67.3125 128.906V133.703H63.2812V135.328H68.9375V136.531H56.1719V135.328H61.8125V133.703H57.7969V128.906H67.3125ZM57.5938 139.031V137.859H67.375V142.328H65.875V139.031H57.5938ZM59.25 132.516H65.8438V130.078H59.25V132.516ZM82.8125 139.453V140.672H70V139.453H73.4375V136.344H71.125V135.141H73.2188V130.781H71.0938V129.562H81.6406V130.781H79.5V135.141H81.5938V136.344H79.2969V139.453H82.8125ZM74.6875 135.141H78.0469V130.781H74.6875V135.141ZM74.9219 139.453H77.8125V136.344H74.9219V139.453ZM99.75 128.328V142.328H98.3281V128.328H99.75ZM87.5312 138.469C89.5156 137.273 90.5234 134.727 90.5312 132.234V131.109H87.9531V129.906H94.3594V131.109H91.9531V132.234C91.9531 134.625 92.9219 137.023 94.8906 138.156L94 139.25C92.6641 138.453 91.75 137.023 91.2578 135.336C90.7578 137.164 89.8047 138.727 88.4375 139.578L87.5312 138.469ZM93.3281 134.5V133.281H95.5V128.625H96.9062V141.625H95.5V134.5H93.3281ZM112.703 128.906V133.703H108.672V135.328H114.328V136.531H101.562V135.328H107.203V133.703H103.188V128.906H112.703ZM102.984 139.031V137.859H112.766V142.328H111.266V139.031H102.984ZM104.641 132.516H111.234V130.078H104.641V132.516ZM121.766 128.562C124.922 128.555 126.758 129.406 126.766 130.969C126.758 132.539 124.922 133.391 121.766 133.391C118.609 133.391 116.758 132.539 116.766 130.969C116.758 129.406 118.609 128.555 121.766 128.562ZM115.391 135.438V134.25H128.156V135.438H115.391ZM116.922 137.625V136.516H126.547V139.797H118.391V141.047H126.938V142.188H116.938V138.719H125.078V137.625H116.922ZM118.312 130.969C118.305 131.836 119.539 132.281 121.766 132.281C124.008 132.281 125.242 131.836 125.234 130.969C125.242 130.141 124.008 129.656 121.766 129.656C119.539 129.656 118.305 130.141 118.312 130.969ZM138.016 130.844C138.008 132.633 139.25 134.328 141.391 135.047L140.641 136.203C139.055 135.656 137.891 134.562 137.281 133.188C136.672 134.695 135.453 135.891 133.812 136.469L133.016 135.312C135.203 134.57 136.523 132.758 136.531 130.828V130.453H133.453V129.25H141.031V130.453H138.016V130.844ZM134.875 138.656V137.453H144.125V142.328H142.641V138.656H134.875ZM142.641 136.766V128.328H144.125V131.922H146.156V133.172H144.125V136.766H142.641ZM151.922 130.422C151.914 132.383 153.188 134.133 155.312 134.828L154.5 135.984C152.961 135.422 151.828 134.344 151.219 132.938C150.617 134.539 149.398 135.797 147.703 136.406L146.906 135.219C149.141 134.453 150.438 132.586 150.453 130.484V129.109H151.922V130.422ZM149.203 139.656C149.195 137.961 150.992 136.977 153.938 136.984C156.867 136.977 158.664 137.961 158.672 139.656C158.664 141.344 156.867 142.305 153.938 142.297C150.992 142.305 149.195 141.344 149.203 139.656ZM150.672 139.656C150.664 140.586 151.883 141.133 153.938 141.125C155.977 141.133 157.195 140.586 157.203 139.656C157.195 138.695 155.977 138.141 153.938 138.141C151.883 138.141 150.664 138.695 150.672 139.656ZM154.188 132.391V131.172H157.141V128.328H158.625V136.594H157.141V132.391H154.188ZM167.703 130.641V131.844H160.75V130.641H163.5V128.734H164.969V130.641H167.703ZM161.203 135.906C161.195 134.023 162.477 132.688 164.234 132.688C166.008 132.688 167.273 134.023 167.281 135.906C167.273 137.82 166.008 139.164 164.234 139.156C162.477 139.164 161.195 137.82 161.203 135.906ZM162.516 135.906C162.508 137.094 163.227 137.891 164.234 137.891C165.242 137.891 165.969 137.094 165.969 135.906C165.969 134.742 165.242 133.93 164.234 133.922C163.227 133.93 162.508 134.742 162.516 135.906ZM168.344 141.672V128.641H169.75V134.156H171.359V128.328H172.766V142.328H171.359V135.375H169.75V141.672H168.344ZM187.375 136.219V137.422H181.688V142.312H180.234V137.422H174.609V136.219H187.375ZM175.328 133.984C177.938 133.625 180.109 132.07 180.156 130.344H175.797V129.156H186.172V130.344H181.844C181.867 132.07 184.023 133.625 186.672 133.984L186.125 135.156C183.828 134.797 181.844 133.664 180.992 132.07C180.133 133.664 178.156 134.797 175.891 135.156L175.328 133.984ZM192.703 132.156C192.703 134.391 193.641 136.773 195.516 137.922L194.688 139.062C193.375 138.273 192.492 136.875 192.008 135.258C191.5 137.031 190.531 138.547 189.172 139.375L188.25 138.266C190.227 137.078 191.273 134.602 191.266 132.219V129.609H192.703V132.156ZM194 134.484V133.25H196.172V128.594H197.578V141.641H196.172V134.484H194ZM199.062 142.328V128.328H200.484V142.328H199.062ZM215.078 139.344V140.578H202.266V139.344H205.328V135.688C204.18 135.055 203.477 134.055 203.484 132.797C203.477 130.594 205.641 129.148 208.641 129.141C211.648 129.148 213.812 130.594 213.812 132.797C213.812 134.031 213.141 135.023 212.016 135.656V139.344H215.078ZM204.922 132.797C204.922 134.297 206.445 135.273 208.641 135.281C210.82 135.273 212.367 134.297 212.375 132.797C212.367 131.289 210.82 130.328 208.641 130.328C206.445 130.328 204.922 131.289 204.922 132.797ZM206.797 139.344H210.516V136.234C209.945 136.367 209.312 136.438 208.641 136.438C207.984 136.438 207.359 136.367 206.797 136.234V139.344Z" fill="#B1B1B1"/>
<path d="M26.8281 184.816V197.258H25.0645V184.816H26.8281ZM16.4102 193.73C19.623 192.213 21.0381 190.244 21.3184 187.482H17.0801V186.115H23.0957C23.0889 189.889 21.7695 193.026 17.3262 195.125L16.4102 193.73ZM38.3398 184.816V188.303H40.0215V189.738H38.3398V193.73H36.5762V184.816H38.3398ZM28.3867 191.133C31.1758 190.36 32.7549 188.918 33.0283 187.168H28.9336V185.746H34.9492C34.9424 189.109 32.8438 191.461 29.1113 192.514L28.3867 191.133ZM30.2461 197.039V192.814H32.0098V195.645H38.7637V197.039H30.2461Z" fill="#6B6B6B"/>
<rect x="16.5" y="206.5" width="153" height="50" rx="11.5" fill="white"/>
<rect x="16.5" y="206.5" width="153" height="50" rx="11.5" stroke="#E8E8E8"/>
<path d="M52.4688 237L52.4632 235.751L56.3859 231.79C57.629 230.503 58.2478 229.79 58.2533 228.796C58.2478 227.68 57.3417 226.972 56.1538 226.972C54.8997 226.972 54.0986 227.762 54.0986 228.972H52.4632C52.4577 226.901 54.0323 225.53 56.187 225.53C58.3693 225.53 59.8776 226.912 59.8886 228.746C59.8776 230.011 59.2809 231.022 57.1594 233.105L54.861 235.442V235.525H60.071V237H52.4688ZM61.4913 234.79V233.403L66.4858 225.685H68.6184V233.337H70.1543V234.79H68.6184V237H66.9775V234.79H61.4913ZM63.2924 233.337H66.9885V227.729H66.867L63.2924 233.249V233.337ZM83.0785 224.337V234.68H81.5978V229.923H77.747V228.735H81.5978V227.265H77.747V226.083H81.5978V224.337H83.0785ZM72.2276 232.68V225.304H73.7028V231.442C75.5591 231.431 77.3326 231.32 79.3326 230.956L79.4873 232.177C77.2663 232.591 75.3713 232.674 73.305 232.68H72.2276ZM73.9569 238.039V233.779H75.4542V236.823H83.4431V238.039H73.9569ZM93.9178 225.685V237H92.1941V227.409H92.1278L89.4261 229.171V227.53L92.2383 225.685H93.9178ZM107.963 224.337V232.547H106.471V231.873H103.742V230.939H106.471V224.337H107.963ZM96.2775 229.503C98.9902 229.508 102.416 229.481 105.432 229.166L105.521 230.116C104.195 230.298 102.824 230.409 101.482 230.481V232.58H100.018V230.536C98.7582 230.575 97.5427 230.575 96.4488 230.569L96.2775 229.503ZM97.3217 226.685C97.3217 225.403 98.7085 224.58 100.83 224.58C102.913 224.58 104.311 225.403 104.322 226.685C104.311 227.994 102.913 228.779 100.83 228.779C98.7085 228.779 97.3217 227.994 97.3217 226.685ZM98.377 234.055V233.017H107.963V236.039H99.8908V237.116H108.383V238.193H98.4322V235.044H106.487V234.055H98.377ZM98.7251 226.685C98.714 227.354 99.5372 227.785 100.83 227.785C102.101 227.785 102.924 227.354 102.924 226.685C102.924 226.017 102.101 225.58 100.83 225.58C99.5372 225.58 98.714 226.017 98.7251 226.685ZM118.824 225.685V237H117.1V227.409H117.034L114.332 229.171V227.53L117.145 225.685H118.824ZM125.189 224.807C127.294 224.812 128.847 226.105 128.858 227.945C128.847 229.779 127.294 231.061 125.189 231.061C123.057 231.061 121.504 229.779 121.504 227.945C121.504 226.105 123.057 224.812 125.189 224.807ZM122.952 227.945C122.941 229.094 123.896 229.856 125.189 229.856C126.471 229.856 127.421 229.094 127.421 227.945C127.421 226.801 126.471 226.033 125.189 226.039C123.896 226.033 122.941 226.801 122.952 227.945ZM123.626 233.276V232.099H132.836V235.619H125.112V236.961H133.294V238.149H123.67V234.514H131.361V233.276H123.626ZM131.35 231.453V224.326H132.836V231.453H131.35Z" fill="#151419"/>
<path d="M175.914 232.234C176.169 231.948 176.453 231.732 176.766 231.586C177.083 231.435 177.419 231.359 177.773 231.359C178.049 231.359 178.32 231.398 178.586 231.477C178.857 231.555 179.174 231.667 179.539 231.812C179.914 231.958 180.227 232.068 180.477 232.141C180.732 232.214 180.992 232.25 181.258 232.25C181.992 232.25 182.602 231.938 183.086 231.312V232.812C182.549 233.396 181.93 233.688 181.227 233.688C180.951 233.688 180.677 233.648 180.406 233.57C180.141 233.492 179.826 233.38 179.461 233.234C179.065 233.083 178.742 232.974 178.492 232.906C178.247 232.833 177.992 232.797 177.727 232.797C177.018 232.797 176.414 233.109 175.914 233.734V232.234Z" fill="#B1B1B1"/>
<rect x="189.5" y="206.5" width="153" height="50" rx="11.5" fill="white"/>
<rect x="189.5" y="206.5" width="153" height="50" rx="11.5" stroke="#E8E8E8"/>
<path d="M241.128 224.906V229.707H237.106V231.337H242.758V232.536H229.996V231.337H235.631V229.707H231.62V224.906H241.128ZM231.41 235.039V233.862H241.189V238.326H239.698V235.039H231.41ZM233.073 228.519H239.664V226.077H233.073V228.519ZM256.636 235.459V236.669H243.824V235.459H247.26V232.348H244.946V231.133H247.034V226.779H244.912V225.569H255.465V226.779H253.321V231.133H255.421V232.348H253.117V235.459H256.636ZM248.509 231.133H251.863V226.779H248.509V231.133ZM248.747 235.459H251.631V232.348H248.747V235.459ZM268.641 225.713V234.812H262.089V225.713H268.641ZM263.542 233.613H267.161V226.89H263.542V233.613ZM270.978 238.326V224.326H272.464V229.812H274.708V231.066H272.464V238.326H270.978ZM286.387 224.326V227.63H288.414V228.856H286.387V232.238H284.9V224.326H286.387ZM275.326 231.249C278.668 230.37 280.641 228.608 280.917 226.414H275.972V225.21H282.525C282.514 228.79 280.083 231.315 275.917 232.431L275.326 231.249ZM277.414 238.138V232.834H286.387V238.138H277.414ZM278.889 236.95H284.917V234.055H278.889V236.95ZM293.182 224.807C295.286 224.812 296.839 226.105 296.85 227.945C296.839 229.779 295.286 231.061 293.182 231.061C291.049 231.061 289.496 229.779 289.496 227.945C289.496 226.105 291.049 224.812 293.182 224.807ZM290.944 227.945C290.933 229.094 291.889 229.856 293.182 229.856C294.463 229.856 295.414 229.094 295.414 227.945C295.414 226.801 294.463 226.033 293.182 226.039C291.889 226.033 290.933 226.801 290.944 227.945ZM291.618 233.276V232.099H300.828V235.619H293.104V236.961H301.286V238.149H291.662V234.514H299.353V233.276H291.618ZM299.342 231.453V224.326H300.828V231.453H299.342Z" fill="#B1B1B1"/>
<path d="M20.9082 282.771C20.9014 284.282 21.7832 285.731 23.752 286.34L22.8223 287.693C21.5029 287.256 20.5801 286.408 20.0469 285.321C19.5068 286.572 18.543 287.557 17.1211 288.035L16.1777 286.668C18.2559 285.978 19.1445 284.323 19.1582 282.607V281.473H20.9082V282.771ZM17.9004 290.852C17.8936 289.341 19.541 288.445 22.166 288.445C24.7432 288.445 26.3564 289.341 26.3633 290.852C26.3564 292.376 24.7432 293.265 22.166 293.258C19.541 293.265 17.8936 292.376 17.9004 290.852ZM19.6504 290.852C19.6367 291.556 20.5322 291.891 22.166 291.891C23.7793 291.891 24.6406 291.556 24.6406 290.852C24.6406 290.175 23.7793 289.812 22.166 289.812C20.5322 289.812 19.6367 290.175 19.6504 290.852ZM24.4902 288.199V280.816H26.2402V283.729H27.9219V285.178H26.2402V288.199H24.4902ZM32.5293 281.336C34.4297 281.322 35.8105 282.409 35.8105 283.975C35.8105 285.526 34.4297 286.627 32.5293 286.613C30.6357 286.627 29.2549 285.526 29.2617 283.975C29.2549 282.409 30.6357 281.322 32.5293 281.336ZM28.4961 287.379C30.7041 287.372 33.8281 287.331 36.4805 286.928L36.5898 288.213C35.5645 288.418 34.5117 288.548 33.4727 288.63V292.889H31.7363V288.732C30.6426 288.78 29.6104 288.787 28.7148 288.801L28.4961 287.379ZM30.9434 283.975C30.9365 284.754 31.5996 285.205 32.5293 285.191C33.4863 285.205 34.1562 284.754 34.1562 283.975C34.1562 283.182 33.4863 282.724 32.5293 282.73C31.5996 282.724 30.9365 283.182 30.9434 283.975ZM37.2324 293.258V280.83H38.9551V293.258H37.2324ZM50.4805 281.309V285.684H47.1035V286.873H51.916V288.281H40.5684V286.873H45.3535V285.684H41.9766V281.309H50.4805ZM41.8262 290.564V289.197H50.5352V293.258H48.7988V290.564H41.8262ZM43.6855 284.316H48.7715V282.662H43.6855V284.316ZM64.0566 290.482V291.877H52.668V290.482H55.498V288.117H53.6113V286.709H55.2793V283.209H53.5566V281.814H63.0996V283.209H61.3496V286.709H63.0449V288.117H61.1719V290.482H64.0566ZM57.0293 286.709H59.627V283.209H57.0293V286.709ZM57.248 290.482H59.4219V288.117H57.248V290.482Z" fill="#6B6B6B"/>
<rect x="16.5" y="306.5" width="326" height="50" rx="5.5" fill="white"/>
<rect x="16.5" y="306.5" width="326" height="50" rx="5.5" stroke="#E8E8E8"/>
<path d="M33.337 326.569C33.337 328.403 34.6298 330.11 36.7182 330.796L35.9282 331.961C34.3923 331.42 33.2431 330.331 32.6298 328.95C32.0276 330.519 30.8398 331.751 29.2099 332.354L28.4088 331.177C30.5912 330.398 31.8564 328.525 31.8674 326.442V325.055H33.337V326.569ZM30.2983 335.696C30.2983 334.066 32.0884 333.105 34.9945 333.105C37.8785 333.105 39.6464 334.066 39.6464 335.696C39.6464 337.359 37.8785 338.304 34.9945 338.304C32.0884 338.304 30.2983 337.359 30.2983 335.696ZM31.7845 335.696C31.7735 336.624 32.9724 337.127 34.9945 337.138C37.0111 337.127 38.1934 336.624 38.1934 335.696C38.1934 334.807 37.0111 334.282 34.9945 334.282C32.9724 334.282 31.7735 334.807 31.7845 335.696ZM38.0331 332.773V324.326H39.5193V327.851H41.547V329.088H39.5193V332.773H38.0331ZM46.9386 324.972C49.0491 324.961 50.5685 326.144 50.5685 327.873C50.5685 329.591 49.0491 330.785 46.9386 330.773C44.8336 330.785 43.3198 329.591 43.3254 327.873C43.3198 326.144 44.8336 324.961 46.9386 324.972ZM42.3309 331.856C44.911 331.856 48.4801 331.801 51.5464 331.348L51.6513 332.453C50.3751 332.691 49.0546 332.84 47.7674 332.934V337.901H46.2812V333.017C44.922 333.077 43.6348 333.088 42.5243 333.094L42.3309 331.856ZM44.7618 327.873C44.7508 328.89 45.6679 329.564 46.9386 329.552C48.2425 329.564 49.1596 328.89 49.1596 327.873C49.1596 326.851 48.2425 326.166 46.9386 326.177C45.6679 326.166 44.7508 326.851 44.7618 327.873ZM52.5187 338.331V324.337H53.9773V338.331H52.5187ZM67.3082 324.906V329.707H63.2861V331.337H68.938V332.536H56.1756V331.337H61.8109V329.707H57.7999V324.906H67.3082ZM57.59 335.039V333.862H67.369V338.326H65.8772V335.039H57.59ZM59.2529 328.519H65.8441V326.077H59.2529V328.519ZM82.8159 335.459V336.669H70.0037V335.459H73.4402V332.348H71.1253V331.133H73.2137V326.779H71.0921V325.569H81.6446V326.779H79.5009V331.133H81.6004V332.348H79.2965V335.459H82.8159ZM74.6888 331.133H78.0424V326.779H74.6888V331.133ZM74.9264 335.459H77.8103V332.348H74.9264V335.459ZM92.6773 326.884C92.6773 328.79 93.9425 330.619 96.053 331.359L95.2353 332.519C93.7105 331.928 92.5668 330.779 91.9646 329.331C91.3624 330.945 90.158 332.215 88.5116 332.851L87.7215 331.663C89.8983 330.895 91.1967 328.95 91.2022 326.851V325.182H92.6773V326.884ZM90.2629 338.039V333.619H91.7602V336.823H99.7215V338.039H90.2629ZM94.9757 328.751V327.525H97.9259V324.337H99.4066V334.779H97.9259V328.751H94.9757ZM107.61 325.32V326.53H103.566V328.088H107.461V329.238H103.566V330.939C105.434 330.923 106.666 330.856 108.102 330.58L108.257 331.79C106.61 332.105 105.273 332.166 103.047 332.166H102.141V325.32H107.61ZM103.981 334.718V333.519H113.494V338.326H112.03V334.718H103.981ZM108.992 332.74V324.597H110.378V327.912H112.091V324.337H113.494V332.84H112.091V329.116H110.378V332.74H108.992Z" fill="#B1B1B1"/>
<path d="M324.806 335.903C324.406 336.447 323.594 336.447 323.194 335.903L319.108 330.342C318.622 329.682 319.094 328.75 319.914 328.75L328.086 328.75C328.906 328.75 329.378 329.682 328.892 330.342L324.806 335.903Z" fill="#D9D9D9"/>
<path d="M22.8633 382.006C22.8496 385.848 21.9199 389.04 17.2715 391.371L16.3145 390.059C18.3926 389.026 19.6299 387.871 20.334 386.49L16.6562 386.832L16.4375 385.342L20.8604 385.075C20.9902 384.549 21.0791 383.988 21.1201 383.4H17.0938V382.006H22.8633ZM24.4355 393.23V380.816H26.1855V385.588H27.9492V387.023H26.1855V393.23H24.4355ZM33.5 382.197V383.564H30.5059V385.547H33.0078V386.873H30.5059V389.108C31.8389 389.088 32.8164 389.02 33.9785 388.828L34.1289 390.236C32.7002 390.496 31.5107 390.51 29.6855 390.51H28.8516V382.197H33.5ZM33.5957 386.75V385.355H34.9902V381.035H36.6172V392.697H34.9902V386.75H33.5957ZM37.5742 393.258V380.816H39.2559V393.258H37.5742ZM50.8223 381.896V383.072C50.8154 384.631 50.8154 386.381 50.3164 389.02L48.5664 388.842C49.0449 386.49 49.0654 384.74 49.0723 383.277H41.7441V381.896H50.8223ZM40.5684 391.74V390.318H44.6289V386.039H46.3652V390.318H51.916V391.74H40.5684ZM63.0996 380.816V393.285H61.3633V380.816H63.0996ZM53.3242 383.264V381.855H59.2441V386.654H55.1426V388.938C57.043 388.924 58.6494 388.828 60.4746 388.527L60.625 389.936C58.5811 390.298 56.7285 390.373 54.459 390.373H53.3379V385.273H57.4668V383.264H53.3242Z" fill="#6B6B6B"/>
<rect x="16.5" y="406.5" width="44" height="32" rx="11.5" fill="white"/>
<rect x="16.5" y="406.5" width="44" height="32" rx="11.5" stroke="#E8E8E8"/>
<path d="M37.0645 415.926V424.949H35.7656V420.697H33.2227V419.617H35.7656V415.926H37.0645ZM27.0293 422.543C29.7568 421.661 31.6094 420 31.876 417.922H27.6582V416.842H33.3047C33.291 420.041 31.0967 422.447 27.5762 423.582L27.0293 422.543ZM29.1758 427.902V424.02H30.4883V426.85H37.3789V427.902H29.1758ZM48.5762 415.912V419.002H50.3535V420.055H48.5762V423.186H47.2773V415.912H48.5762ZM38.9375 422.229C41.8086 421.422 43.5654 419.822 43.8047 417.84H39.4844V416.787H45.2129C45.2129 419.952 43.0596 422.242 39.4707 423.281L38.9375 422.229ZM40.6055 425.729C40.5918 424.238 42.2051 423.315 44.666 423.322C47.1338 423.315 48.7129 424.238 48.7129 425.729C48.7129 427.232 47.1338 428.142 44.666 428.148C42.2051 428.142 40.5918 427.232 40.6055 425.729ZM41.8906 425.729C41.8838 426.59 42.9502 427.116 44.666 427.123C46.3682 427.116 47.4414 426.59 47.4414 425.729C47.4414 424.867 46.3682 424.341 44.666 424.348C42.9502 424.341 41.8838 424.867 41.8906 425.729Z" fill="#4E4E4E"/>
<rect x="67.5" y="406.5" width="56" height="32" rx="11.5" fill="white"/>
<rect x="67.5" y="406.5" width="56" height="32" rx="11.5" stroke="#E8E8E8"/>
<path d="M88.3838 415.912V428.162H87.1396V421.873H85.6768V427.561H84.4463V416.145H85.6768V420.779H87.1396V415.912H88.3838ZM77.6377 424.703C79.4287 423.698 80.2627 421.586 80.2627 419.152V418.359H77.9658V417.307H83.6533V418.359H81.5205V419.152C81.5205 421.354 82.3477 423.35 84.1318 424.266L83.3662 425.264C82.1631 424.607 81.3564 423.466 80.9189 422.058C80.502 423.664 79.6953 424.949 78.4443 425.688L77.6377 424.703ZM94.9189 417.361V418.4H91.583V420.656H94.3721V421.668H91.583V424.238C93.1826 424.218 94.2285 424.156 95.4932 423.924L95.6025 424.977C94.1943 425.264 93.0322 425.284 91.1318 425.291H90.3389V417.361H94.9189ZM95.0146 421.559V420.506H96.6689V416.172H97.8994V427.547H96.6689V421.559H95.0146ZM99.1709 428.162V415.912H100.429V428.162H99.1709ZM111.858 417.102V418.592C111.858 420.383 111.858 422.064 111.325 424.607L110.04 424.484C110.3 423.356 110.437 422.379 110.505 421.47L103.149 421.859L102.985 420.793L110.566 420.506C110.594 419.85 110.594 419.221 110.601 418.592V418.168H103.327V417.102H111.858ZM102.001 426.521V425.455H113.171V426.521H102.001Z" fill="#4E4E4E"/>
<rect x="130.5" y="406.5" width="68" height="32" rx="11.5" fill="white"/>
<rect x="130.5" y="406.5" width="68" height="32" rx="11.5" stroke="#E8E8E8"/>
<path d="M145.018 419.521C145.011 421.456 146.289 423.616 148.148 424.498L147.41 425.51C146.036 424.854 144.942 423.473 144.389 421.873C143.828 423.616 142.68 425.127 141.285 425.824L140.52 424.799C142.379 423.903 143.726 421.593 143.732 419.521V418.223H140.971V417.143H147.684V418.223H145.018V419.521ZM148.996 428.162V415.912H150.295V420.766H152.264V421.859H150.295V428.162H148.996ZM163.037 415.912V428.162H161.725V415.912H163.037ZM152.975 424.881C156.229 423.329 157.821 421.121 158.074 418.264H153.562V417.225H159.387C159.387 420.813 157.862 423.917 153.658 425.934L152.975 424.881ZM175.479 415.912V428.162H174.248V415.912H175.479ZM164.883 424.621C167.487 423.076 168.731 421.019 168.957 418.496H165.484V417.43H170.242C170.242 418.059 170.194 418.667 170.099 419.262H171.746V416.227H172.977V427.561H171.746V423.391H169.654V422.324H171.746V420.328H169.859C169.265 422.386 167.959 424.177 165.648 425.551L164.883 424.621ZM178.801 416.432V418.1H182.014V416.432H183.299V421.777H177.529V416.432H178.801ZM178.76 423.773V422.748H186.676V425.838H180.059V427H187.1V428.039H178.787V424.881H185.391V423.773H178.76ZM178.801 420.738H182.014V419.098H178.801V420.738ZM185.377 422.215V415.912H186.676V418.482H188.453V419.535H186.676V422.215H185.377Z" fill="#4E4E4E"/>
<rect x="205.5" y="406.5" width="44" height="32" rx="11.5" fill="white"/>
<rect x="205.5" y="406.5" width="44" height="32" rx="11.5" stroke="#E8E8E8"/>
<path d="M219.174 416.828C220.295 416.835 221.211 417.471 221.751 418.578H224.779V415.912H226.064V428.189H224.779V423.486H221.84C221.313 424.717 220.356 425.435 219.174 425.428C217.349 425.435 216.057 423.767 216.07 421.121C216.057 418.503 217.349 416.835 219.174 416.828ZM217.301 421.121C217.308 423.069 218.066 424.266 219.174 424.266C220.281 424.266 221.04 423.069 221.047 421.121C221.04 419.2 220.281 417.997 219.174 417.99C218.066 417.997 217.308 419.2 217.301 421.121ZM222.12 419.645C222.216 420.096 222.277 420.588 222.277 421.121C222.277 421.586 222.236 422.017 222.154 422.42H224.779V419.645H222.12ZM237.494 415.912V420.793H239.395V421.873H237.494V428.148H236.195V415.912H237.494ZM227.965 424.881C231.034 423.35 232.702 421.135 232.969 418.277H228.58V417.197H234.295C234.281 420.738 232.723 423.903 228.689 425.893L227.965 424.881Z" fill="#4E4E4E"/>
<rect x="256.5" y="406.5" width="28" height="32" rx="11.5" fill="white"/>
<rect x="256.5" y="406.5" width="28" height="32" rx="11.5" stroke="#E8E8E8"/>
<path d="M269.837 426.371V423.76H267.226V422.447H269.837V419.836H271.149V422.447H273.774V423.76H271.149V426.371H269.837Z" fill="#151419"/>
<rect x="16" y="463" width="327" height="56" rx="8" fill="#F56E0F"/>
<path d="M161.174 484.092H163.302V498.956H161.174V484.092ZM158.582 489.276H161.67V490.988H158.582V489.276ZM154.294 486.444H155.974V487.756C155.974 491.372 154.662 494.828 151.894 496.188L150.646 494.508C153.126 493.34 154.294 490.508 154.294 487.756V486.444ZM154.79 486.444H156.454V487.756C156.454 490.364 157.606 493.1 160.087 494.22L158.854 495.884C156.07 494.572 154.79 491.26 154.79 487.756V486.444ZM151.254 485.532H159.495V487.244H151.254V485.532ZM168.773 485.756H170.517V486.684C170.517 489.516 169.189 492.06 166.325 493.004L165.269 491.324C167.733 490.508 168.773 488.572 168.773 486.684V485.756ZM169.205 485.756H170.933V486.684C170.933 488.412 171.925 490.108 174.309 490.828L173.301 492.492C170.485 491.644 169.205 489.324 169.205 486.684V485.756ZM165.829 485.1H173.829V486.796H165.829V485.1ZM175.013 484.108H177.141V492.892H175.013V484.108ZM176.549 487.516H179.109V489.26H176.549V487.516ZM172.309 493.164C175.381 493.164 177.317 494.236 177.317 496.044C177.317 497.852 175.381 498.924 172.309 498.924C169.221 498.924 167.285 497.852 167.285 496.044C167.285 494.236 169.221 493.164 172.309 493.164ZM172.309 494.828C170.421 494.828 169.397 495.212 169.397 496.044C169.397 496.876 170.421 497.292 172.309 497.292C174.197 497.292 175.205 496.876 175.205 496.044C175.205 495.212 174.197 494.828 172.309 494.828ZM189.588 484.108H191.7V498.924H189.588V484.108ZM191.22 489.884H193.844V491.66H191.22V489.884ZM180.02 486.3H188.644V487.996H180.02V486.3ZM184.356 488.828C186.516 488.828 188.116 490.3 188.116 492.364C188.116 494.428 186.516 495.9 184.356 495.9C182.196 495.9 180.596 494.428 180.596 492.364C180.596 490.3 182.196 488.828 184.356 488.828ZM184.356 490.556C183.348 490.556 182.628 491.228 182.628 492.364C182.628 493.5 183.348 494.172 184.356 494.172C185.364 494.172 186.084 493.5 186.084 492.364C186.084 491.228 185.364 490.556 184.356 490.556ZM183.284 484.348H185.412V486.94H183.284V484.348ZM204.899 484.108H207.043V498.924H204.899V484.108ZM200.531 485.644H202.643C202.643 490.172 201.107 493.884 195.843 496.428L194.739 494.732C198.995 492.684 200.531 489.996 200.531 486.028V485.644ZM195.523 485.644H201.539V487.324H195.523V485.644Z" fill="white"/>
</g>
<defs>
<filter id="filter0_i_1616_8114" x="0" y="0" width="359" height="536" filterUnits="userSpaceOnUse" color-interpolation-filters="sRGB">
<feFlood flood-opacity="0" result="BackgroundImageFix"/>
<feBlend mode="normal" in="SourceGraphic" in2="BackgroundImageFix" result="shape"/>
<feColorMatrix in="SourceAlpha" type="matrix" values="0 0 0 0 0 0 0 0 0 0 0 0 0 0 0 0 0 0 127 0" result="hardAlpha"/>
<feOffset dy="1"/>
<feGaussianBlur stdDeviation="1"/>
<feComposite in2="hardAlpha" operator="arithmetic" k2="-1" k3="1"/>
<feColorMatrix type="matrix" values="0 0 0 0 1 0 0 0 0 1 0 0 0 0 1 0 0 0 0.07 0"/>
<feBlend mode="normal" in2="shape" result="effect1_innerShadow_1616_8114"/>
</filter>
</defs>
</svg>
