<svg width="25" height="24" viewBox="0 0 25 24" fill="none" xmlns="http://www.w3.org/2000/svg">
<path d="M11.3756 1.9993C12.106 1.41495 13.144 1.41495 13.8744 1.9993L21.8744 8.3993C22.3488 8.77885 22.625 9.35347 22.625 9.96104V20.9998C22.625 22.1044 21.7296 22.9998 20.625 22.9998H16.625C16.0727 22.9998 15.625 22.5521 15.625 21.9998V17.9998C15.625 17.4475 15.1773 16.9998 14.625 16.9998H10.625C10.0727 16.9998 9.625 17.4475 9.625 17.9998V21.9998C9.625 22.5521 9.17728 22.9998 8.625 22.9998H4.625C3.52043 22.9998 2.625 22.1044 2.625 20.9998V9.96104C2.625 9.35347 2.90118 8.77885 3.37561 8.3993L11.3756 1.9993Z" fill="black"/>
</svg>
