<svg width="24" height="24" viewBox="0 0 24 24" fill="none" xmlns="http://www.w3.org/2000/svg">
<path d="M12.2078 7.15385C12.9844 7.15385 13.9578 6.60458 14.5375 5.87222C15.0625 5.20852 15.4453 4.28163 15.4453 3.35474C15.4453 3.22886 15.4344 3.10299 15.4125 3C14.5484 3.03433 13.5094 3.60648 12.8859 4.37317C12.3938 4.95677 11.9453 5.87222 11.9453 6.81055C11.9453 6.94787 11.9672 7.08519 11.9781 7.13096C12.0328 7.1424 12.1203 7.15385 12.2078 7.15385ZM9.47344 21C10.5344 21 11.0047 20.2562 12.3281 20.2562C13.6734 20.2562 13.9688 20.9771 15.15 20.9771C16.3094 20.9771 17.0859 19.8557 17.8188 18.7572C18.6391 17.4984 18.9781 16.2626 19 16.2053C18.9234 16.1825 16.7031 15.2327 16.7031 12.5664C16.7031 10.2549 18.4531 9.2136 18.5516 9.1335C17.3922 7.39415 15.6313 7.34838 15.15 7.34838C13.8484 7.34838 12.7875 8.17228 12.1203 8.17228C11.3984 8.17228 10.4469 7.39415 9.32031 7.39415C7.17656 7.39415 5 9.24793 5 12.7495C5 14.9237 5.80938 17.2238 6.80469 18.7114C7.65781 19.9701 8.40156 21 9.47344 21Z" fill="white"/>
</svg>
