<svg width="226" height="42" viewBox="0 0 226 42" fill="none" xmlns="http://www.w3.org/2000/svg">
<path d="M0.898127 42V-2.86102e-06H21.5981C26.2781 -2.86102e-06 30.3981 0.859998 33.9581 2.58C37.5181 4.26 40.2981 6.66 42.2981 9.78C44.2981 12.9 45.2981 16.62 45.2981 20.94C45.2981 25.3 44.2981 29.06 42.2981 32.22C40.2981 35.34 37.5181 37.76 33.9581 39.48C30.3981 41.16 26.2781 42 21.5981 42H0.898127ZM15.0581 30.96H20.9981C22.9981 30.96 24.7381 30.58 26.2181 29.82C27.7381 29.06 28.9181 27.94 29.7581 26.46C30.5981 24.94 31.0181 23.1 31.0181 20.94C31.0181 18.82 30.5981 17.02 29.7581 15.54C28.9181 14.06 27.7381 12.94 26.2181 12.18C24.7381 11.42 22.9981 11.04 20.9981 11.04H15.0581V30.96ZM44.1225 42L62.4825 -2.86102e-06H76.4025L94.7625 42H80.1225L66.5625 6.72H72.0825L58.5225 42H44.1225ZM55.0425 34.68L58.6425 24.48H77.9625L81.5625 34.68H55.0425ZM103.927 42V23.58L107.167 32.04L88.087 -2.86102e-06H103.027L115.927 21.9H107.227L120.247 -2.86102e-06H133.927L114.967 32.04L118.087 23.58V42H103.927ZM134.525 42V-2.86102e-06H146.165L162.965 27.42H156.845L173.165 -2.86102e-06H184.805L184.925 42H172.025L171.905 19.44H173.945L162.785 38.22H156.545L144.905 19.44H147.425V42H134.525ZM203.531 15.6H222.251V25.8H203.531V15.6ZM204.491 31.32H225.491V42H190.571V-2.86102e-06H224.711V10.68H204.491V31.32Z" fill="white"/>
</svg>
