<svg width="229" height="42" viewBox="0 0 229 42" fill="none" xmlns="http://www.w3.org/2000/svg">
<path d="M0.838122 42V-2.86102e-06H21.5381C26.2181 -2.86102e-06 30.3381 0.859998 33.8981 2.58C37.4581 4.26 40.2381 6.66 42.2381 9.78C44.2381 12.9 45.2381 16.62 45.2381 20.94C45.2381 25.3 44.2381 29.06 42.2381 32.22C40.2381 35.34 37.4581 37.76 33.8981 39.48C30.3381 41.16 26.2181 42 21.5381 42H0.838122ZM14.9981 30.96H20.9381C22.9381 30.96 24.6781 30.58 26.1581 29.82C27.6781 29.06 28.8581 27.94 29.6981 26.46C30.5381 24.94 30.9581 23.1 30.9581 20.94C30.9581 18.82 30.5381 17.02 29.6981 15.54C28.8581 14.06 27.6781 12.94 26.1581 12.18C24.6781 11.42 22.9381 11.04 20.9381 11.04H14.9981V30.96ZM44.8425 42L63.2025 -2.86102e-06H77.1225L95.4825 42H80.8425L67.2825 6.72H72.8025L59.2425 42H44.8425ZM55.7625 34.68L59.3625 24.48H78.6825L82.2825 34.68H55.7625ZM105.427 42V23.58L108.667 32.04L89.587 -2.86102e-06H104.527L117.427 21.9H108.727L121.747 -2.86102e-06H135.427L116.467 32.04L119.587 23.58V42H105.427ZM136.805 42V-2.86102e-06H148.445L165.245 27.42H159.125L175.445 -2.86102e-06H187.085L187.205 42H174.305L174.185 19.44H176.225L165.065 38.22H158.825L147.185 19.44H149.705V42H136.805ZM206.591 15.6H225.311V25.8H206.591V15.6ZM207.551 31.32H228.551V42H193.631V-2.86102e-06H227.771V10.68H207.551V31.32Z" fill="#F56E0F"/>
</svg>
