<svg width="25" height="24" viewBox="0 0 25 24" fill="none" xmlns="http://www.w3.org/2000/svg">
<path d="M11.3756 1.99951C12.106 1.41516 13.144 1.41516 13.8744 1.99951L21.8744 8.39951C22.3488 8.77906 22.625 9.35368 22.625 9.96125V21C22.625 22.1046 21.7296 23 20.625 23H16.625C16.0727 23 15.625 22.5523 15.625 22V18C15.625 17.4477 15.1773 17 14.625 17H10.625C10.0727 17 9.625 17.4477 9.625 18V22C9.625 22.5523 9.17728 23 8.625 23H4.625C3.52043 23 2.625 22.1046 2.625 21V9.96125C2.625 9.35368 2.90118 8.77906 3.37561 8.39951L11.3756 1.99951Z" fill="black" fill-opacity="0.25"/>
</svg>
