<svg width="24" height="24" viewBox="0 0 24 24" fill="none" xmlns="http://www.w3.org/2000/svg">
<path d="M12.0002 7.09336C13.5025 7.09336 14.5158 7.74225 15.0936 8.28448L17.3514 6.08002C15.9647 4.79112 14.1603 4 12.0002 4C8.87133 4 6.16908 5.79557 4.85352 8.40893L7.4402 10.4178C8.0891 8.48893 9.88467 7.09336 12.0002 7.09336Z" fill="#E64F45"/>
<path d="M19.6801 12.1785C19.6801 11.5208 19.6267 11.0408 19.5112 10.543H12V13.5119H16.4089C16.32 14.2497 15.84 15.3608 14.7734 16.1075L17.2978 18.063C18.8089 16.6675 19.6801 14.6141 19.6801 12.1785Z" fill="#5AABF6"/>
<path d="M7.44892 13.5835C7.28003 13.0858 7.18225 12.5524 7.18225 12.0013C7.18225 11.4502 7.28003 10.9168 7.44003 10.4191L4.85334 8.41016C4.31111 9.49461 4 10.7124 4 12.0013C4 13.2902 4.31111 14.508 4.85334 15.5924L7.44892 13.5835Z" fill="#F5BA60"/>
<path d="M12.0001 19.9999C14.1602 19.9999 15.9735 19.2887 17.298 18.0621L14.7735 16.1065C14.0979 16.5776 13.1913 16.9065 12.0001 16.9065C9.88457 16.9065 8.089 15.5109 7.44899 13.582L4.8623 15.5909C6.17787 18.2043 8.87123 19.9999 12.0001 19.9999Z" fill="#2EA94D"/>
</svg>
